<svg width="600" height="307" xmlns="http://www.w3.org/2000/svg" xmlns:svg="http://www.w3.org/2000/svg" preserveAspectRatio="xMidYMid meet">
  <g fill="#000000" transform="translate(0,600) scale(0.10000000149011612,-0.10000000149011612)">
    <path id="svg_2" d="m2815,5974c-55,-5 -165,-28 -236,-50c-26,-8 -55,-14 -65,-14c-11,0 -28,-7 -38,-15c-11,-8 -28,-15 -37,-15c-10,0 -30,-7 -46,-14c-15,-8 -62,-31 -104,-50c-41,-20 -92,-47 -113,-61c-20,-14 -39,-25 -41,-25c-2,0 -40,-25 -85,-56c-73,-51 -247,-213 -307,-286c-68,-84 -183,-275 -183,-305c0,-32 -46,-61 -106,-67c-207,-21 -652,-112 -819,-168c-16,-5 -43,-13 -60,-18c-73,-20 -223,-78 -265,-102c-8,-4 -21,-10 -28,-13c-46,-18 -65,-30 -145,-89c-96,-70 -127,-120 -127,-203c0,-113 84,-201 280,-295c156,-74 310,-127 535,-181c33,-8 83,-21 110,-27c28,-7 70,-16 95,-20c58,-9 156,-27 245,-46c39,-8 86,-14 105,-14c19,0 55,-5 80,-11c25,-6 77,-14 115,-17c67,-7 70,-8 69,-32c-1,-14 -11,-50 -23,-80c-38,-95 -52,-134 -61,-165c-4,-16 -18,-55 -30,-85c-12,-30 -24,-63 -27,-72c-3,-10 -28,-24 -59,-34c-68,-21 -115,-68 -139,-138c-18,-51 -18,-54 1,-105c36,-101 113,-150 219,-137c119,14 192,138 151,256c-14,41 -14,47 2,72c29,47 94,139 167,238c39,52 79,108 90,125c23,36 27,42 62,82l28,32l90,-9c383,-38 1370,-38 1770,0c100,9 103,8 143,-54c13,-22 28,-44 33,-50c23,-26 155,-207 197,-269c85,-124 86,-125 71,-144c-9,-10 -14,-42 -14,-88c0,-59 4,-78 24,-107c34,-49 80,-78 137,-84c105,-13 184,37 219,139c18,52 18,55 -1,106c-24,68 -71,114 -138,135c-55,18 -69,34 -86,101c-5,17 -18,55 -30,85c-12,30 -25,69 -30,85c-5,17 -18,55 -30,85c-13,30 -23,66 -24,80c-1,24 2,25 69,32c39,3 90,11 115,17c25,6 61,11 80,11c19,0 67,6 105,14c89,19 187,37 245,46c25,4 68,13 95,20c28,6 77,19 110,27c91,22 150,38 260,72c261,82 462,195 523,297c15,24 33,44 40,44c8,0 12,20 12,65c0,52 -3,65 -15,65c-9,0 -19,10 -24,23c-5,12 -22,36 -37,53c-29,31 -127,105 -154,117c-8,4 -22,11 -30,16c-52,32 -240,108 -325,131c-16,5 -43,13 -60,18c-89,29 -135,42 -151,42c-11,0 -39,6 -64,14c-90,28 -461,97 -604,112c-60,6 -106,35 -106,67c0,8 -11,34 -24,58c-14,24 -34,61 -46,83c-54,100 -231,302 -340,389c-49,38 -152,112 -170,120c-8,4 -28,16 -45,26c-16,11 -64,36 -105,56c-41,20 -88,42 -103,50c-16,8 -35,15 -42,15c-8,0 -29,6 -47,14c-37,16 -107,36 -213,61c-69,17 -373,28 -490,19zm367,-259c135,-26 224,-51 313,-90c17,-7 37,-16 45,-19c8,-3 22,-10 30,-15c8,-5 22,-12 30,-15c8,-4 29,-15 45,-26c17,-11 37,-23 45,-27c40,-18 175,-130 258,-214c194,-195 312,-440 303,-626c-1,-12 -15,-35 -31,-52c-182,-182 -1151,-273 -1865,-175c-358,49 -569,125 -605,218c-12,33 10,163 44,251c20,54 90,189 106,205c3,3 18,25 35,49c60,89 302,311 375,344c8,4 29,16 45,26c46,30 144,76 220,104c196,71 429,95 607,62z" />
  </g>
</svg>